<svg width="4" height="13" viewBox="0 0 4 13" fill="none" xmlns="http://www.w3.org/2000/svg">
<path fill-rule="evenodd" clip-rule="evenodd" d="M1.7222 0.166687C0.95514 0.166687 0.333313 0.788514 0.333313 1.55558C0.333313 2.32264 0.95514 2.94446 1.7222 2.94446C2.48926 2.94446 3.11109 2.32264 3.11109 1.55558C3.11109 0.788514 2.48926 0.166687 1.7222 0.166687ZM1.7222 4.6112C0.95514 4.6112 0.333313 5.23303 0.333313 6.00009C0.333313 6.76715 0.95514 7.38898 1.7222 7.38898C2.48926 7.38898 3.11109 6.76715 3.11109 6.00009C3.11109 5.23303 2.48926 4.6112 1.7222 4.6112ZM0.333313 10.8611C0.333313 10.0941 0.95514 9.47225 1.7222 9.47225C2.48926 9.47225 3.11109 10.0941 3.11109 10.8611C3.11109 11.6282 2.48926 12.25 1.7222 12.25C0.95514 12.25 0.333313 11.6282 0.333313 10.8611Z" fill="#1D2433" fill-opacity="0.75"/>
</svg>
